# xmcd
#
# Track frame offsets:
#	150
#	28375
#	54107
#	75249
#	102510
#	121460
#	152557
#	199670
#
# Disc length: 3342 seconds
#
# Revision: 1
# Processed by: cddbd v1.5.2PL0 Copyright (c) Steve Scherf et al.
# Submitted via: audiograbber 1.83.01
#
DISCID=5c0d0c08
DTITLE=Grateful Dead - 90-03-26 Knickerbocker Arena, Albany NY
DYEAR=1900
DGENRE=
TTITLE0=Hell In A Bucket
TTITLE1=Dupree's Diamond Blues
TTITLE2=Just A Little Light
TTITLE3=Black Throated Wind
TTITLE4=Big Railroad Blues
TTITLE5=Picasso Moon
TTITLE6=Row Jimmy
TTITLE7=Blow Away
EXTD=
EXTT0=
EXTT1=
EXTT2=
EXTT3=
EXTT4=
EXTT5=
EXTT6=
EXTT7=
PLAYORDER=
